<?xml version="1.0" encoding="UTF-8" standalone="no"?>
<!-- Created with Inkscape (http://www.inkscape.org/) -->

<svg
   xmlns:dc="http://purl.org/dc/elements/1.1/"
   xmlns:cc="http://creativecommons.org/ns#"
   xmlns:rdf="http://www.w3.org/1999/02/22-rdf-syntax-ns#"
   xmlns:svg="http://www.w3.org/2000/svg"
   xmlns="http://www.w3.org/2000/svg"
   xmlns:xlink="http://www.w3.org/1999/xlink"
   xmlns:sodipodi="http://sodipodi.sourceforge.net/DTD/sodipodi-0.dtd"
   xmlns:inkscape="http://www.inkscape.org/namespaces/inkscape"
   width="454.32736mm"
   height="84.141144mm"
   viewBox="0 0 454.32736 84.141145"
   version="1.1"
   id="svg8"
   inkscape:version="0.92.3 (2405546, 2018-03-11)"
   sodipodi:docname="logo.svg">
  <defs
     id="defs2">
    <linearGradient
       inkscape:collect="always"
       id="Gradieeeent">
      <stop
         style="stop-color:#ffffff;stop-opacity:0"
         offset="0"
         id="stop841" />
      <stop
         style="stop-color:#ffffff;stop-opacity:0.997"
         offset="1"
         id="stop843" />
    </linearGradient>
    <linearGradient
       inkscape:collect="always"
       xlink:href="#Gradieeeent"
       id="linearGradient847"
       x1="470.55469"
       y1="476.63629"
       x2="665.487"
       y2="476.63629"
       gradientUnits="userSpaceOnUse" />
    <linearGradient
       inkscape:collect="always"
       xlink:href="#Gradieeeent"
       id="linearGradient974"
       x1="326.57144"
       y1="128.42261"
       x2="325.81549"
       y2="191.92262"
       gradientUnits="userSpaceOnUse"
       gradientTransform="translate(-6.047619,-36.285715)" />
  </defs>
  <sodipodi:namedview
     id="base"
     pagecolor="#ffffff"
     bordercolor="#666666"
     borderopacity="1.0"
     inkscape:pageopacity="0.0"
     inkscape:pageshadow="2"
     inkscape:zoom="0.35"
     inkscape:cx="1440.731"
     inkscape:cy="115.09185"
     inkscape:document-units="mm"
     inkscape:current-layer="layer1"
     showgrid="false"
     inkscape:window-width="1920"
     inkscape:window-height="1147"
     inkscape:window-x="1912"
     inkscape:window-y="-8"
     inkscape:window-maximized="1"
     fit-margin-top="15"
     fit-margin-left="0"
     fit-margin-right="0"
     fit-margin-bottom="-20" />
  <metadata
     id="metadata5">
    <rdf:RDF>
      <cc:Work
         rdf:about="">
        <dc:format>image/svg+xml</dc:format>
        <dc:type
           rdf:resource="http://purl.org/dc/dcmitype/StillImage" />
        <dc:title></dc:title>
      </cc:Work>
    </rdf:RDF>
  </metadata>
  <g
     inkscape:label="Ebene 1"
     inkscape:groupmode="layer"
     id="layer1"
     transform="translate(-71.059555,-53.763621)">
    <flowRoot
       xml:space="preserve"
       id="flowRoot3713"
       style="font-style:normal;font-variant:normal;font-weight:normal;font-stretch:normal;font-size:53.33333588px;line-height:1.25;font-family:'Microsoft Yi Baiti';-inkscape-font-specification:'Microsoft Yi Baiti';letter-spacing:0px;word-spacing:0px;fill:#252570;fill-opacity:1;stroke:#252570;stroke-width:2.36847448;stroke-miterlimit:4;stroke-dasharray:none;stroke-opacity:1"
       transform="matrix(1.0962855,0,0,1.1875889,-393.20818,-465.04795)"><flowRegion
         id="flowRegion3715"
         style="font-style:normal;font-variant:normal;font-weight:normal;font-stretch:normal;font-size:53.33333588px;font-family:'Microsoft Yi Baiti';-inkscape-font-specification:'Microsoft Yi Baiti';fill:#252570;fill-opacity:1;stroke:#252570;stroke-width:2.36847448;stroke-miterlimit:4;stroke-dasharray:none;stroke-opacity:1"><rect
           id="rect3717"
           width="1050.5586"
           height="268.70059"
           x="468.71078"
           y="434.98843"
           style="font-style:normal;font-variant:normal;font-weight:normal;font-stretch:normal;font-size:53.33333588px;font-family:'Microsoft Yi Baiti';-inkscape-font-specification:'Microsoft Yi Baiti';fill:#252570;fill-opacity:1;stroke:#252570;stroke-width:2.36847448;stroke-miterlimit:4;stroke-dasharray:none;stroke-opacity:1" /></flowRegion><flowPara
         id="flowPara3719"
         style="fill:#252570;fill-opacity:1;stroke:#252570;stroke-width:2.36847448;stroke-miterlimit:4;stroke-dasharray:none;stroke-opacity:1">Sportwatch</flowPara></flowRoot>    <flowRoot
       xml:space="preserve"
       id="flowRoot3721"
       style="font-style:normal;font-variant:normal;font-weight:normal;font-stretch:normal;font-size:40px;line-height:1.25;font-family:'Microsoft Yi Baiti';-inkscape-font-specification:'Microsoft Yi Baiti';letter-spacing:0px;word-spacing:0px;fill:#4646d4;fill-opacity:1;stroke:none;stroke-width:0.46496451;stroke-miterlimit:4;stroke-dasharray:none;stroke-opacity:1"
       transform="matrix(1.2799999,0,0,1.2799999,-123.29996,-977.13268)"><flowRegion
         id="flowRegion3723"
         style="font-style:normal;font-variant:normal;font-weight:normal;font-stretch:normal;font-family:'Microsoft Yi Baiti';-inkscape-font-specification:'Microsoft Yi Baiti';fill:#4646d4;fill-opacity:1;stroke:none;stroke-width:0.46496451;stroke-miterlimit:4;stroke-dasharray:none;stroke-opacity:1"><rect
           id="rect3725"
           width="1174.2858"
           height="294.28571"
           x="360"
           y="800.38245"
           style="font-style:normal;font-variant:normal;font-weight:normal;font-stretch:normal;font-family:'Microsoft Yi Baiti';-inkscape-font-specification:'Microsoft Yi Baiti';fill:#4646d4;fill-opacity:1;stroke:none;stroke-width:0.46496451;stroke-miterlimit:4;stroke-dasharray:none;stroke-opacity:1" /></flowRegion><flowPara
         id="flowPara3727"
         style="font-style:normal;font-variant:normal;font-weight:normal;font-stretch:normal;font-size:53.33333588px;font-family:'Microsoft Yi Baiti';-inkscape-font-specification:'Microsoft Yi Baiti';letter-spacing:-1.49576688px;fill:#4646d4;fill-opacity:1;stroke:none;stroke-width:0.46496451;stroke-miterlimit:4;stroke-dasharray:none;stroke-opacity:1">shop.ch</flowPara></flowRoot>    <path
       style="fill:#4646d4;fill-opacity:1;stroke:none;stroke-width:2;stroke-miterlimit:4;stroke-dasharray:none;stroke-opacity:1"
       d="m 116.11954,114.66883 a 20.78869,20.78869 0 0 1 -0.21859,0.23461 20.78869,20.78869 0 0 1 -1.56114,1.37149 20.78869,20.78869 0 0 1 -1.69034,1.20871 20.78869,20.78869 0 0 1 -1.80247,1.03405 20.78869,20.78869 0 0 1 -1.89653,0.84852 20.78869,20.78869 0 0 1 -1.97197,0.65526 20.78869,20.78869 0 0 1 -2.02778,0.45527 20.78869,20.78869 0 0 1 -2.06241,0.25063 20.78869,20.78869 0 0 1 -1.47071,0.0517 20.78869,20.78869 0 0 1 -2.075325,-0.10387 20.78869,20.78869 0 0 1 -2.05465,-0.31057 20.78869,20.78869 0 0 1 -2.01332,-0.51367 20.78869,20.78869 0 0 1 -1.95233,-0.71261 20.78869,20.78869 0 0 1 -1.87121,-0.90382 20.78869,20.78869 0 0 1 -1.77146,-1.08624 20.78869,20.78869 0 0 1 -1.65416,-1.25781 20.78869,20.78869 0 0 1 -1.30535,-1.21594 v 15.02647 h 29.399745 z"
       id="path864"
       inkscape:connector-curvature="0" />
    <path
       style="fill:#4646d4;fill-opacity:1;stroke:none;stroke-width:2;stroke-miterlimit:4;stroke-dasharray:none;stroke-opacity:1"
       d="m 86.719795,68.763621 v 16.543691 a 20.78869,20.78869 0 0 1 0.21394,-0.229444 20.78869,20.78869 0 0 1 1.56114,-1.371491 20.78869,20.78869 0 0 1 1.69034,-1.208712 20.78869,20.78869 0 0 1 1.80247,-1.034045 20.78869,20.78869 0 0 1 1.89705,-0.849045 20.78869,20.78869 0 0 1 1.97197,-0.655256 20.78869,20.78869 0 0 1 2.02726,-0.454753 20.78869,20.78869 0 0 1 2.06293,-0.250631 20.78869,20.78869 0 0 1 1.470705,-0.05219 20.78869,20.78869 0 0 1 2.07532,0.103867 20.78869,20.78869 0 0 1 2.05466,0.310576 20.78869,20.78869 0 0 1 2.01331,0.514181 20.78869,20.78869 0 0 1 1.95234,0.712618 20.78869,20.78869 0 0 1 1.87068,0.903822 20.78869,20.78869 0 0 1 1.77199,1.086238 20.78869,20.78869 0 0 1 1.65416,1.257287 20.78869,20.78869 0 0 1 1.30948,1.220081 V 68.763621 Z"
       id="rect859"
       inkscape:connector-curvature="0" />
    <path
       style="fill:#2b2b88;fill-opacity:1;stroke:none;stroke-width:1.8042109;stroke-miterlimit:4;stroke-dasharray:none;stroke-opacity:1"
       d="m 114.51314,86.483738 a 18.516908,18.993302 0 0 0 -1.16638,-1.11471 18.516908,18.993302 0 0 0 -1.47339,-1.148702 18.516908,18.993302 0 0 0 -1.57835,-0.992428 18.516908,18.993302 0 0 0 -1.66625,-0.825764 18.516908,18.993302 0 0 0 -1.73899,-0.651074 18.516908,18.993302 0 0 0 -1.7933,-0.469774 18.516908,18.993302 0 0 0 -1.83012,-0.283754 18.516908,18.993302 0 0 0 -1.84853,-0.0949 18.516908,18.993302 0 0 0 -1.30999,0.04768 18.516908,18.993302 0 0 0 -1.837495,0.228987 18.516908,18.993302 0 0 0 -1.80572,0.415478 18.516908,18.993302 0 0 0 -1.75648,0.598666 18.516908,18.993302 0 0 0 -1.68973,0.775719 18.516908,18.993302 0 0 0 -1.6055,0.94474 18.516908,18.993302 0 0 0 -1.50562,1.104323 18.516908,18.993302 0 0 0 -1.39054,1.253045 18.516908,18.993302 0 0 0 -0.19056,0.209628 v 26.830942 a 18.516908,18.993302 0 0 0 1.16269,1.11093 18.516908,18.993302 0 0 0 1.47341,1.14918 18.516908,18.993302 0 0 0 1.57787,0.99242 18.516908,18.993302 0 0 0 1.66673,0.82577 18.516908,18.993302 0 0 0 1.73898,0.65107 18.516908,18.993302 0 0 0 1.7933,0.4693 18.516908,18.993302 0 0 0 1.83012,0.28375 18.516908,18.993302 0 0 0 1.848535,0.0949 18.516908,18.993302 0 0 0 1.30999,-0.0472 18.516908,18.993302 0 0 0 1.83703,-0.22898 18.516908,18.993302 0 0 0 1.80618,-0.41595 18.516908,18.993302 0 0 0 1.75648,-0.59867 18.516908,18.993302 0 0 0 1.68927,-0.77524 18.516908,18.993302 0 0 0 1.6055,-0.94474 18.516908,18.993302 0 0 0 1.50562,-1.10433 18.516908,18.993302 0 0 0 1.39054,-1.25304 18.516908,18.993302 0 0 0 0.1947,-0.21435 z"
       id="path862"
       inkscape:connector-curvature="0" />
    <path
       style="opacity:0.99599998;fill:url(#linearGradient974);fill-opacity:1;stroke:none;stroke-width:2;stroke-miterlimit:4;stroke-dasharray:none;stroke-opacity:1"
       id="path956"
       sodipodi:type="arc"
       sodipodi:cx="298.22324"
       sodipodi:cy="124.64286"
       sodipodi:rx="227.16368"
       sodipodi:ry="33.261906"
       sodipodi:start="0"
       sodipodi:end="6.2255022"
       d="M 525.38692,124.64286 A 227.16368,33.261906 0 0 1 301.499,157.90131 227.16368,33.261906 0 0 1 71.15403,125.60205 227.16368,33.261906 0 0 1 288.39867,91.412077 227.16368,33.261906 0 0 1 525.0091,122.72527 l -226.78586,1.91759 z" />
  </g>
</svg>
